<svg width="250" height="70" viewBox="0 0 250 70" fill="none" xmlns="http://www.w3.org/2000/svg">
<rect width="250" height="70" fill="white"/>
<path d="M89.9452 18.0108C89.9452 19.4696 89.5132 20.6314 88.6479 21.4981C87.6652 22.5286 86.3843 23.0442 84.8096 23.0442C83.3017 23.0442 82.0195 22.5218 80.9652 21.4756C79.9089 20.4301 79.3818 19.1337 79.3818 17.587C79.3818 16.0395 79.9089 14.7438 80.9652 13.6976C82.0195 12.6521 83.3017 12.129 84.8096 12.129C85.5578 12.129 86.2742 12.2753 86.9544 12.5672C87.6345 12.8597 88.1801 13.248 88.5882 13.7343L87.6699 14.6532C86.9782 13.8268 86.0259 13.4139 84.8096 13.4139C83.7098 13.4139 82.7589 13.8003 81.9563 14.5736C81.1536 15.3478 80.7524 16.3517 80.7524 17.587C80.7524 18.8222 81.1536 19.8261 81.9563 20.6003C82.7589 21.3736 83.7098 21.76 84.8096 21.76C85.9763 21.76 86.949 21.3715 87.7277 20.5935C88.2332 20.0866 88.5255 19.3821 88.6037 18.4773H84.8096V17.2223H89.8724C89.9214 17.4952 89.9452 17.7571 89.9452 18.0108" fill="black"/>
<path d="M89.945 18.011H89.7709C89.7695 19.4366 89.3532 20.5438 88.5247 21.3751L88.5227 21.3765L88.5221 21.3779C87.5704 22.3729 86.3473 22.8681 84.8094 22.8702C83.3417 22.8681 82.1132 22.3675 81.0874 21.3527C80.0639 20.3358 79.5577 19.0944 79.5558 17.5871C79.5577 16.0792 80.0639 14.8385 81.0874 13.8223C82.1132 12.8068 83.3417 12.3054 84.8094 12.3034C85.5352 12.3034 86.2263 12.4449 86.8854 12.7272C87.5452 13.0115 88.0664 13.3842 88.4547 13.8468L88.588 13.7345L88.4649 13.6114L87.5466 14.531L87.6697 14.6534L87.8038 14.542C87.0799 13.6746 86.0639 13.2374 84.8094 13.24C83.6689 13.2386 82.6656 13.6461 81.8357 14.4488C80.9977 15.2541 80.5767 16.3144 80.5781 17.5871C80.5767 18.8598 80.9977 19.9201 81.8357 20.7255C82.6656 21.5282 83.6689 21.9357 84.8094 21.9343C86.0148 21.9364 87.042 21.5275 87.8506 20.7168C88.3908 20.1752 88.6969 19.4251 88.7771 18.4924L88.7933 18.3033H84.9836V17.3966H89.8722V17.2225L89.7007 17.2532C89.7484 17.5171 89.7709 17.768 89.7709 18.011H89.945H90.1192C90.1192 17.7463 90.0946 17.4743 90.0436 17.1913L90.0178 17.0484H84.6353V18.4775V18.6516H88.6035V18.4775L88.4301 18.4625C88.3533 19.3387 88.0744 19.9985 87.6044 20.4705C86.8562 21.216 85.938 21.5839 84.8094 21.586C83.7504 21.5846 82.8519 21.22 82.0772 20.4752C81.31 19.7331 80.9283 18.7857 80.9263 17.5871C80.9283 16.3886 81.31 15.4412 82.0772 14.699C82.8519 13.9543 83.7504 13.5896 84.8094 13.5883C85.9869 13.591 86.876 13.98 87.5365 14.7657L87.6589 14.9113L88.7112 13.8576L88.824 13.7448L88.7213 13.6229C88.2934 13.1129 87.7235 12.708 87.0228 12.4075C86.3209 12.1061 85.5801 11.9551 84.8094 11.9551C83.2614 11.9537 81.9255 12.4979 80.8419 13.5747C79.7543 14.6494 79.2061 16.0003 79.2075 17.5871C79.2061 19.1733 79.7543 20.5249 80.8426 21.6003C81.9255 22.6764 83.2614 23.2199 84.8094 23.2185C86.4215 23.2199 87.7588 22.6844 88.7737 21.6186L88.6478 21.4982L88.7709 21.6214C89.6729 20.7201 90.1204 19.5026 90.1192 18.011H89.945Z" fill="black"/>
<path d="M97.9713 13.6467H93.2134V16.9594H97.5041V18.2149H93.2134V21.5275H97.9713V22.811H91.8721V12.3632H97.9713V13.6467Z" fill="black"/>
<path d="M97.9711 13.6467V13.4726H93.0391V17.1335H97.3298V18.0402L93.0391 18.0407V21.7016H97.797V22.6368H92.046V12.5373H97.797V13.6467H97.9711V13.4726V13.6467H98.1452V12.3632V12.1891H91.6978V22.9851H98.1452V21.5275V21.3533H93.3873V18.389H97.6781V16.9594V16.7852H93.3873V13.8208H98.1452V13.6467H97.9711" fill="black"/>
<path d="M103.633 22.811H102.289V13.6467H99.3711V12.3632H106.551V13.6467H103.633V22.811Z" fill="black"/>
<path d="M103.632 22.811V22.6368H102.463V13.4726H99.545V12.5373H106.376V13.4726H103.458V22.811H103.632V22.6368V22.811H103.807V13.8208H106.725V12.3632V12.1891H99.1968V13.6467V13.8208H102.115V22.9851H103.632H103.807V22.811H103.632" fill="black"/>
<path d="M111.745 22.811V12.3632H113.087V22.811H111.745Z" fill="black"/>
<path d="M111.745 22.811H111.92V12.5373H112.913V22.6368H111.745V22.811H111.92H111.745V22.9851H113.087H113.262V12.1891H111.745H111.571V22.9851H111.745V22.811Z" fill="black"/>
<path d="M119.043 22.811H117.699V13.6467H114.781V12.3632H121.961V13.6467H119.043V22.811Z" fill="black"/>
<path d="M119.042 22.811V22.6368H117.873V13.4726H114.955V12.5373H121.786V13.4726H118.868V22.811H119.042V22.6368V22.811H119.216V13.8208H122.135V12.3632V12.1891H114.607V13.6467V13.8208H117.525V22.9851H119.042H119.216V22.811H119.042" fill="black"/>
<path d="M128.882 20.586C129.655 21.3689 130.601 21.76 131.72 21.76C132.839 21.76 133.786 21.3689 134.558 20.586C135.332 19.8031 135.72 18.8024 135.72 17.587C135.72 16.3715 135.332 15.3708 134.558 14.5879C133.786 13.805 132.839 13.4139 131.72 13.4139C130.601 13.4139 129.655 13.805 128.882 14.5879C128.11 15.3708 127.722 16.3715 127.722 17.587C127.722 18.8024 128.11 19.8031 128.882 20.586ZM135.551 21.4606C134.524 22.5169 133.247 23.0442 131.72 23.0442C130.192 23.0442 128.916 22.5169 127.891 21.4606C126.863 20.4056 126.352 19.1141 126.352 17.587C126.352 16.0598 126.863 14.7681 127.891 13.7133C128.916 12.6568 130.192 12.129 131.72 12.129C133.239 12.129 134.512 12.6596 135.544 13.7201C136.575 14.7805 137.09 16.0694 137.09 17.587C137.09 19.1141 136.576 20.4056 135.551 21.4606Z" fill="black"/>
<path d="M128.882 20.5862L128.758 20.7086C129.56 21.5228 130.561 21.9364 131.721 21.9343C132.88 21.9364 133.882 21.5228 134.682 20.7086C135.489 19.8936 135.896 18.8393 135.894 17.5871C135.896 16.335 135.489 15.2806 134.682 14.4657C133.882 13.6515 132.88 13.2379 131.721 13.24C130.561 13.2379 129.56 13.6515 128.758 14.4657C127.953 15.2806 127.546 16.335 127.548 17.5871C127.546 18.8393 127.953 19.8936 128.758 20.7086L128.882 20.5862L129.006 20.4637C128.267 19.712 127.898 18.7665 127.897 17.5871C127.898 16.4078 128.267 15.4622 129.006 14.7105C129.751 13.959 130.642 13.5903 131.721 13.5883C132.799 13.5903 133.691 13.959 134.435 14.7105C135.175 15.4622 135.544 16.4078 135.545 17.5871C135.544 18.7665 135.175 19.712 134.435 20.4637C133.691 21.2153 132.799 21.5839 131.721 21.586C130.642 21.5839 129.751 21.2153 129.006 20.4637L128.882 20.5862ZM135.551 21.4608L135.427 21.3398C134.429 22.3628 133.208 22.8681 131.721 22.8702C130.233 22.8681 129.012 22.3628 128.015 21.3398L128.011 21.3344L128.015 21.3398C127.019 20.3133 126.527 19.0754 126.526 17.5871C126.527 16.0988 127.019 14.861 128.015 13.8345C129.012 12.8115 130.233 12.3054 131.721 12.3034C133.198 12.3054 134.416 12.8135 135.42 13.842C136.42 14.8732 136.915 16.1091 136.917 17.5871C136.915 19.0754 136.421 20.3133 135.427 21.3398L135.551 21.4608L135.677 21.5818C136.732 20.4977 137.266 19.1529 137.265 17.5871C137.266 16.0302 136.73 14.6882 135.67 13.5992C134.609 12.506 133.28 11.9532 131.721 11.9551C130.153 11.9532 128.82 12.5034 127.766 13.5924V13.5917C126.708 14.6766 126.176 16.0214 126.178 17.5871C126.176 19.1529 126.708 20.4977 127.766 21.5825L127.771 21.5874L127.766 21.5818C128.82 22.6708 130.153 23.2199 131.721 23.2185C133.287 23.2199 134.62 22.6708 135.677 21.5818L135.551 21.4608" fill="black"/>
<path d="M138.975 22.811V12.3632H140.608L145.686 20.4909H145.744L145.686 18.4774V12.3632H147.029V22.811H145.628L140.316 14.2895H140.258L140.316 16.3036V22.811H138.975Z" fill="black"/>
<path d="M138.975 22.811H139.149V12.5373H140.512L145.59 20.665H145.744H145.923L145.86 18.4748V12.5373H146.856V22.6368H145.725L140.413 14.1153H140.258H140.08L140.142 16.3064V22.6368H138.975V22.811H139.149H138.975V22.9851H140.316H140.49V16.3008L140.433 14.2847L140.258 14.2894V14.4636H140.316V14.2894L140.169 14.3821L145.532 22.9851H147.03H147.204V12.1891H145.686H145.512V18.4795L145.57 20.4956L145.744 20.4909V20.3167H145.686V20.4909L145.834 20.3984L140.705 12.1891H138.975H138.801V22.9851H138.975V22.811Z" fill="black"/>
<path d="M193.583 52.413H196.832V30.6447H193.583V52.413ZM222.849 38.4861L219.124 47.9237H219.013L215.147 38.4861H211.647L217.444 51.6769L214.139 59.0142H217.529L226.462 38.4861H222.849ZM204.423 49.9405C203.357 49.9405 201.873 49.4085 201.873 48.0918C201.873 46.4116 203.723 45.7675 205.318 45.7675C206.747 45.7675 207.418 46.0755 208.286 46.496C208.034 48.5121 206.298 49.9405 204.423 49.9405V49.9405ZM204.814 38.0099C202.462 38.0099 200.026 39.0464 199.018 41.3429L201.901 42.5468C202.518 41.3429 203.665 40.9504 204.87 40.9504C206.55 40.9504 208.259 41.9591 208.286 43.7514V43.9752C207.698 43.6391 206.439 43.1352 204.898 43.1352C201.79 43.1352 198.624 44.843 198.624 48.0359C198.624 50.9485 201.173 52.8251 204.029 52.8251C206.214 52.8251 207.418 51.8449 208.175 50.6969H208.286V52.3769H211.423V44.0309C211.423 40.1668 208.539 38.0099 204.814 38.0099V38.0099ZM184.734 41.136H180.112V33.6744H184.734C187.163 33.6744 188.542 35.6856 188.542 37.4051C188.542 39.0921 187.163 41.136 184.734 41.136ZM184.65 30.6447H176.865V52.413H180.112V44.1657H184.65C188.251 44.1657 191.791 41.5584 191.791 37.4051C191.791 33.2519 188.251 30.6447 184.65 30.6447ZM142.196 49.9445C139.951 49.9445 138.072 48.0651 138.072 45.4838C138.072 42.8754 139.951 40.9674 142.196 40.9674C144.412 40.9674 146.151 42.8754 146.151 45.4838C146.151 48.0651 144.412 49.9445 142.196 49.9445V49.9445ZM145.927 39.705H145.814C145.085 38.8356 143.682 38.0501 141.915 38.0501C138.212 38.0501 134.818 41.304 134.818 45.4838C134.818 49.6358 138.212 52.8619 141.915 52.8619C143.682 52.8619 145.085 52.0762 145.814 51.1791H145.927V52.2449C145.927 55.0787 144.412 56.5935 141.971 56.5935C139.979 56.5935 138.745 55.1623 138.24 53.9563L135.407 55.1344C136.22 57.0981 138.38 59.5108 141.971 59.5108C145.786 59.5108 149.012 57.2661 149.012 51.796V38.499H145.927V39.705ZM151.256 52.413H154.511V30.644H151.256V52.413ZM159.308 45.2315C159.224 42.3699 161.524 40.9115 163.179 40.9115C164.47 40.9115 165.564 41.5563 165.928 42.4829L159.308 45.2315ZM169.407 42.7631C168.79 41.1074 166.91 38.0501 163.067 38.0501C159.251 38.0501 156.082 41.0517 156.082 45.456C156.082 49.6079 159.224 52.8619 163.431 52.8619C166.826 52.8619 168.79 50.7859 169.604 49.5799L167.079 47.8964C166.238 49.131 165.087 49.9445 163.431 49.9445C161.776 49.9445 160.598 49.1869 159.841 47.7005L169.743 43.6045L169.407 42.7631ZM90.5119 40.3225V43.4643H98.03C97.8055 45.2315 97.2164 46.5218 96.3186 47.4196C95.2249 48.514 93.5136 49.72 90.5119 49.72C85.8831 49.72 82.2645 45.9892 82.2645 41.3604C82.2645 36.7317 85.8831 33.0003 90.5119 33.0003C93.0088 33.0003 94.8317 33.9824 96.1785 35.2449L98.3946 33.0289C96.5152 31.2331 94.0182 29.8585 90.5119 29.8585C84.1717 29.8585 78.8418 35.0204 78.8418 41.3604C78.8418 47.7005 84.1717 52.8619 90.5119 52.8619C93.9346 52.8619 96.5152 51.7403 98.5348 49.6358C100.611 47.5598 101.256 44.6424 101.256 42.2863C101.256 41.5563 101.2 40.8837 101.088 40.3225H90.5119ZM109.804 49.9445C107.559 49.9445 105.623 48.093 105.623 45.456C105.623 42.7909 107.559 40.9674 109.804 40.9674C112.047 40.9674 113.983 42.7909 113.983 45.456C113.983 48.093 112.047 49.9445 109.804 49.9445V49.9445ZM109.804 38.0501C105.707 38.0501 102.369 41.1639 102.369 45.456C102.369 49.72 105.707 52.8619 109.804 52.8619C113.899 52.8619 117.237 49.72 117.237 45.456C117.237 41.1639 113.899 38.0501 109.804 38.0501ZM126.021 49.9445C123.777 49.9445 121.841 48.093 121.841 45.456C121.841 42.7909 123.777 40.9674 126.021 40.9674C128.265 40.9674 130.2 42.7909 130.2 45.456C130.2 48.093 128.265 49.9445 126.021 49.9445ZM126.021 38.0501C121.925 38.0501 118.587 41.1639 118.587 45.456C118.587 49.72 121.925 52.8619 126.021 52.8619C130.116 52.8619 133.455 49.72 133.455 45.456C133.455 41.1639 130.116 38.0501 126.021 38.0501Z" fill="black"/>
<path d="M25.6765 56.5737L25.5471 56.4499C25.0404 55.9138 24.7412 55.0813 24.7412 54.0032V54.2569V15.7465C24.7412 15.743 24.7412 15.7404 24.7412 15.7376C24.7412 15.7409 24.7412 15.7437 24.7412 15.7472V16.0016C24.7412 14.8342 25.09 13.9549 25.6744 13.4276L47.2486 35.0014L25.6765 56.5737ZM24.7412 15.7355C24.7412 15.6396 24.7438 15.5464 24.7487 15.4547C24.7438 15.5457 24.7412 15.6396 24.7412 15.7355ZM24.7487 15.4505C24.7487 15.4493 24.7487 15.4479 24.7492 15.4465C24.7487 15.4479 24.7487 15.4493 24.7487 15.4505ZM24.7492 15.4383C24.7492 15.4376 24.7492 15.4369 24.7492 15.4362C24.7492 15.4369 24.7492 15.4376 24.7492 15.4383Z" fill="url(#paint0_linear_609_22386)"/>
<path d="M54.4389 42.4501L54.6029 42.3569L63.1229 37.5159C63.9352 37.0541 64.4765 36.4943 64.7466 35.9019C64.4772 36.4943 63.9357 37.0548 63.1229 37.5166L54.6029 42.3576L54.4389 42.4501V42.4501ZM54.4409 42.195L47.2485 35.0013L54.4403 27.8089L63.1229 32.7416C64.2255 33.3682 64.8445 34.1756 64.9479 35.0006C64.9479 35.0013 64.9479 35.0027 64.9479 35.0039C64.8445 35.827 64.2255 36.6352 63.1229 37.2615L54.4409 42.195" fill="url(#paint1_linear_609_22386)"/>
<path d="M27.2144 57.3953C26.6118 57.3953 26.0859 57.1994 25.6758 56.8294L25.6765 56.8287C26.0866 57.1987 26.6132 57.3953 27.2158 57.3953C27.2681 57.3953 27.3212 57.3939 27.375 57.3913C27.3205 57.3939 27.2667 57.3953 27.2144 57.3953V57.3953ZM27.2151 57.1402C26.6125 57.1409 26.0866 56.9443 25.6765 56.5743V56.5738L47.2487 35.0014L54.4411 42.1951L29.1659 56.556C28.4666 56.9525 27.804 57.1402 27.2151 57.1402V57.1402ZM25.6704 56.8247C25.6323 56.7901 25.5948 56.7533 25.5581 56.7152L25.6704 56.8247Z" fill="url(#paint2_linear_609_22386)"/>
<path d="M47.2486 35.0013L25.6743 13.4276C26.0844 13.0582 26.6096 12.8623 27.2115 12.8623C27.802 12.8623 28.4651 13.0507 29.1658 13.4479L54.4403 27.8089L47.2486 35.0013V35.0013ZM54.6029 27.6464L29.1658 13.1937C28.4651 12.7963 27.802 12.6079 27.2115 12.6079C27.2087 12.6079 27.2068 12.6079 27.204 12.6079C27.2075 12.6079 27.2101 12.6079 27.2143 12.6079C27.8034 12.6079 28.4658 12.7956 29.1658 13.193L54.6029 27.6464V27.6464Z" fill="url(#paint3_linear_609_22386)"/>
<path d="M27.3747 57.3913C27.9222 57.3599 28.5283 57.1715 29.1656 56.8104L54.4388 42.4501L29.1656 56.8104C28.5288 57.1722 27.9222 57.3599 27.3747 57.3913V57.3913ZM25.6756 56.8293L25.6702 56.8246C25.6721 56.826 25.6742 56.8279 25.6756 56.8293ZM25.5578 56.7151L25.5469 56.7043V56.7036C25.5511 56.7076 25.5544 56.7116 25.5578 56.7151Z" fill="white"/>
<path d="M54.439 42.4501L54.603 42.3569L54.439 42.4501Z" fill="url(#paint4_linear_609_22386)"/>
<path d="M27.2156 57.3953C26.6129 57.3953 26.0863 57.1987 25.6763 56.8287L25.6756 56.8294C25.6742 56.828 25.6721 56.8261 25.6702 56.8247L25.5578 56.7152C25.5544 56.7117 25.5511 56.7077 25.5469 56.7037L25.6763 56.5743C26.0863 56.9443 26.6122 57.1409 27.2149 57.1402C27.8038 57.1402 28.4663 56.9525 29.1656 56.556L54.4409 42.1951L54.6028 42.357L54.4388 42.4502L29.1656 56.8104C28.5283 57.1716 27.9222 57.36 27.3747 57.3913C27.3209 57.3939 27.2678 57.3953 27.2156 57.3953" fill="url(#paint5_linear_609_22386)"/>
<path d="M25.5471 56.7044C25.0404 56.1682 24.7412 55.3357 24.7412 54.2577V54.257C24.7412 55.3357 25.0404 56.1675 25.5471 56.7037V56.7044" fill="white"/>
<path d="M25.5471 56.7037C25.0404 56.1676 24.7412 55.3358 24.7412 54.257V54.0033C24.7412 55.0814 25.0404 55.9139 25.5471 56.45L25.6765 56.5738L25.5471 56.7037" fill="url(#paint6_linear_609_22386)"/>
<path d="M25.5469 56.7037L25.6763 56.5738V56.5744L25.5469 56.7037" fill="url(#paint7_linear_609_22386)"/>
<path d="M64.7466 35.902C64.8805 35.608 64.9479 35.3061 64.9479 35.004C64.9479 35.0035 64.9479 35.0028 64.9479 35.0028C64.9479 35.3054 64.8805 35.6074 64.7466 35.902Z" fill="white"/>
<path d="M54.6029 42.3569L54.4409 42.195L63.1228 37.2616C64.2254 36.6352 64.8445 35.8271 64.9479 35.004C64.9479 35.3061 64.8805 35.608 64.7466 35.902C64.4765 36.4943 63.9351 37.0542 63.1228 37.516L54.6029 42.3569Z" fill="url(#paint8_linear_609_22386)"/>
<path d="M64.9478 35.0013V35.0006C64.9471 34.0897 64.3383 33.179 63.1227 32.4879L54.6027 27.647H54.6021L54.6027 27.6464L63.1227 32.4872C64.3397 33.1783 64.9492 34.0904 64.9478 35.0013Z" fill="#404040"/>
<path d="M64.9481 35.0007C64.8446 34.1756 64.2256 33.3682 63.123 32.7417L54.4404 27.8089L54.6024 27.647H54.6031L63.123 32.488C64.3386 33.1791 64.9474 34.0898 64.9481 35.0007Z" fill="url(#paint9_linear_609_22386)"/>
<path d="M24.7412 15.7376C24.7412 15.7369 24.7412 15.7362 24.7412 15.7355C24.7412 15.7362 24.7412 15.7369 24.7412 15.7376ZM24.7487 15.4546C24.7487 15.4532 24.7487 15.4519 24.7487 15.4505C24.7487 15.4519 24.7487 15.4532 24.7487 15.4546ZM24.7492 15.4465C24.7492 15.4437 24.7492 15.4411 24.7492 15.4383C24.7492 15.4411 24.7492 15.4437 24.7492 15.4465ZM24.7492 15.4362C24.85 13.6474 25.8227 12.6141 27.1987 12.608C26.6021 12.6115 26.0825 12.8074 25.6758 13.1739V13.1732L25.6709 13.1781C25.6281 13.2167 25.5873 13.2576 25.5471 13.2998C25.09 13.7833 24.8016 14.5077 24.7492 15.4362Z" fill="#404040"/>
<path d="M24.7412 16.0016V15.7472C24.7412 15.7437 24.7412 15.7409 24.7412 15.7376C24.7412 15.7369 24.7412 15.7362 24.7412 15.7355C24.7412 15.6396 24.7438 15.5457 24.7487 15.4546C24.7487 15.4533 24.7487 15.4519 24.7487 15.4505C24.7487 15.4493 24.7487 15.4479 24.7492 15.4465C24.7492 15.4437 24.7492 15.4411 24.7492 15.4383C24.7492 15.4376 24.7492 15.4369 24.7492 15.4362C24.8016 14.5077 25.09 13.7834 25.5471 13.2998L25.6744 13.4276C25.09 13.9549 24.7412 14.8342 24.7412 16.0016V16.0016ZM25.6709 13.1781L25.6758 13.1732C25.6744 13.1753 25.6723 13.1767 25.6709 13.1781Z" fill="url(#paint10_linear_609_22386)"/>
<path d="M54.4402 27.8089L29.1656 13.4479C28.4649 13.0507 27.8019 12.8623 27.2114 12.8623C26.6094 12.8623 26.0842 13.0582 25.6742 13.4276L25.5469 13.2997C25.5871 13.2576 25.6278 13.2167 25.6707 13.178C25.6721 13.1766 25.6742 13.1752 25.6756 13.1739C26.0823 12.8073 26.6019 12.6114 27.1985 12.6079C27.1999 12.6079 27.2018 12.6079 27.2039 12.6079C27.2067 12.6079 27.2086 12.6079 27.2114 12.6079C27.8019 12.6079 28.4649 12.7963 29.1656 13.1937L54.6028 27.6464L54.6021 27.647L54.4402 27.8089Z" fill="url(#paint11_linear_609_22386)"/>
<defs>
<linearGradient id="paint0_linear_609_22386" x1="45.3357" y1="15.3403" x2="16.1124" y2="44.5635" gradientUnits="userSpaceOnUse">
<stop stop-color="#00A0FF"/>
<stop offset="0.00657445" stop-color="#00A1FF"/>
<stop offset="0.2601" stop-color="#00BEFF"/>
<stop offset="0.5122" stop-color="#00D2FF"/>
<stop offset="0.7604" stop-color="#00DFFF"/>
<stop offset="1" stop-color="#00E3FF"/>
</linearGradient>
<linearGradient id="paint1_linear_609_22386" x1="66.2913" y1="35.0024" x2="24.1572" y2="35.0024" gradientUnits="userSpaceOnUse">
<stop stop-color="#FFE000"/>
<stop offset="0.4087" stop-color="#FFBD00"/>
<stop offset="0.7754" stop-color="#FFA500"/>
<stop offset="1" stop-color="#FF9C00"/>
</linearGradient>
<linearGradient id="paint2_linear_609_22386" x1="50.607" y1="38.9982" x2="10.9781" y2="78.6271" gradientUnits="userSpaceOnUse">
<stop stop-color="#FF3A44"/>
<stop offset="1" stop-color="#C31162"/>
</linearGradient>
<linearGradient id="paint3_linear_609_22386" x1="20.0825" y1="0.480865" x2="37.7784" y2="18.1768" gradientUnits="userSpaceOnUse">
<stop stop-color="#32A071"/>
<stop offset="0.0685" stop-color="#2DA771"/>
<stop offset="0.4762" stop-color="#15CF74"/>
<stop offset="0.8009" stop-color="#06E775"/>
<stop offset="1" stop-color="#00F076"/>
</linearGradient>
<linearGradient id="paint4_linear_609_22386" x1="66.291" y1="35.0027" x2="24.1584" y2="35.0027" gradientUnits="userSpaceOnUse">
<stop stop-color="#CCB300"/>
<stop offset="0.4087" stop-color="#CC9700"/>
<stop offset="0.7754" stop-color="#CC8400"/>
<stop offset="1" stop-color="#CC7D00"/>
</linearGradient>
<linearGradient id="paint5_linear_609_22386" x1="50.6067" y1="38.9982" x2="10.9778" y2="78.6271" gradientUnits="userSpaceOnUse">
<stop stop-color="#CC2E36"/>
<stop offset="1" stop-color="#9C0E4E"/>
</linearGradient>
<linearGradient id="paint6_linear_609_22386" x1="45.3357" y1="15.3404" x2="16.1125" y2="44.5637" gradientUnits="userSpaceOnUse">
<stop stop-color="#008DE0"/>
<stop offset="0.00657445" stop-color="#008DE0"/>
<stop offset="0.2601" stop-color="#00A7E0"/>
<stop offset="0.5122" stop-color="#00B8E0"/>
<stop offset="0.7604" stop-color="#00C4E0"/>
<stop offset="1" stop-color="#00C7E0"/>
</linearGradient>
<linearGradient id="paint7_linear_609_22386" x1="50.6077" y1="38.9986" x2="10.9795" y2="78.629" gradientUnits="userSpaceOnUse">
<stop stop-color="#E0333C"/>
<stop offset="1" stop-color="#AB0F56"/>
</linearGradient>
<linearGradient id="paint8_linear_609_22386" x1="66.2913" y1="35.0024" x2="24.1572" y2="35.0024" gradientUnits="userSpaceOnUse">
<stop stop-color="#E0C500"/>
<stop offset="0.4087" stop-color="#E0A600"/>
<stop offset="0.7754" stop-color="#E09100"/>
<stop offset="1" stop-color="#E08900"/>
</linearGradient>
<linearGradient id="paint9_linear_609_22386" x1="66.2915" y1="35.0024" x2="24.1574" y2="35.0024" gradientUnits="userSpaceOnUse">
<stop stop-color="#FFE840"/>
<stop offset="0.4087" stop-color="#FFCE40"/>
<stop offset="0.7754" stop-color="#FFBC40"/>
<stop offset="1" stop-color="#FFB540"/>
</linearGradient>
<linearGradient id="paint10_linear_609_22386" x1="45.3357" y1="15.3402" x2="16.1124" y2="44.5635" gradientUnits="userSpaceOnUse">
<stop stop-color="#40B8FF"/>
<stop offset="0.00657445" stop-color="#40B9FF"/>
<stop offset="0.2601" stop-color="#40CEFF"/>
<stop offset="0.5122" stop-color="#40DDFF"/>
<stop offset="0.7604" stop-color="#40E7FF"/>
<stop offset="1" stop-color="#40EAFF"/>
</linearGradient>
<linearGradient id="paint11_linear_609_22386" x1="20.0823" y1="0.480868" x2="37.7782" y2="18.1768" gradientUnits="userSpaceOnUse">
<stop stop-color="#65B895"/>
<stop offset="0.0685" stop-color="#62BD95"/>
<stop offset="0.4762" stop-color="#50DB97"/>
<stop offset="0.8009" stop-color="#44ED98"/>
<stop offset="1" stop-color="#40F498"/>
</linearGradient>
</defs>
</svg>
