<svg width="250" height="70" viewBox="0 0 250 70" fill="none" xmlns="http://www.w3.org/2000/svg">
<rect width="250" height="70" fill="white"/>
<path d="M64.5353 33.637C64.5549 32.1181 64.9584 30.6288 65.7082 29.3077C66.458 27.9866 67.5298 26.8766 68.8238 26.081C68.0018 24.907 66.9173 23.9407 65.6564 23.2591C64.3956 22.5775 62.9932 22.1993 61.5607 22.1545C58.5047 21.8337 55.5422 23.9831 53.9849 23.9831C52.3975 23.9831 49.9999 22.1863 47.4181 22.2394C45.7481 22.2934 44.1205 22.779 42.694 23.649C41.2675 24.519 40.0907 25.7436 39.2782 27.2036C35.7588 33.2971 38.3839 42.2526 41.7553 47.1781C43.4421 49.59 45.4135 52.2842 47.993 52.1887C50.5172 52.084 51.4599 50.5791 54.5069 50.5791C57.5255 50.5791 58.41 52.1887 61.0418 52.1279C63.7504 52.084 65.4569 49.7053 67.0846 47.2706C68.2965 45.552 69.2291 43.6526 69.8478 41.6428C68.2742 40.9772 66.9313 39.8631 65.9866 38.4395C65.0419 37.0158 64.5372 35.3456 64.5353 33.637Z" fill="black"/>
<path d="M59.5644 18.9143C61.0412 17.1414 61.7688 14.8626 61.5926 12.562C59.3363 12.7989 57.2522 13.8773 55.7554 15.5821C55.0236 16.415 54.4631 17.384 54.106 18.4336C53.7488 19.4832 53.6021 20.5929 53.6741 21.6993C54.8026 21.7109 55.9191 21.4663 56.9394 20.9839C57.9597 20.5015 58.8572 19.7938 59.5644 18.9143V18.9143Z" fill="black"/>
<path d="M94.8193 46.3233H86.5359L84.5466 52.197H81.0381L88.884 30.4655H92.5293L100.375 52.197H96.8069L94.8193 46.3233ZM87.3938 43.6128H93.9598L90.723 34.0801H90.6323L87.3938 43.6128Z" fill="black"/>
<path d="M117.32 44.2755C117.32 49.1991 114.684 52.3624 110.708 52.3624C109.7 52.4151 108.698 52.183 107.817 51.6928C106.935 51.2025 106.209 50.4739 105.722 49.5904H105.647V57.438H102.395V36.3526H105.543V38.9879H105.603C106.112 38.1085 106.85 37.3837 107.738 36.8905C108.627 36.3973 109.632 36.1541 110.648 36.1868C114.669 36.1868 117.32 39.3655 117.32 44.2755ZM113.977 44.2755C113.977 41.0677 112.319 38.9588 109.79 38.9588C107.305 38.9588 105.634 41.1121 105.634 44.2755C105.634 47.4679 107.305 49.6058 109.79 49.6058C112.319 49.6058 113.977 47.5123 113.977 44.2755H113.977Z" fill="black"/>
<path d="M134.759 44.2755C134.759 49.1991 132.123 52.3624 128.146 52.3624C127.139 52.4151 126.137 52.183 125.255 51.6928C124.373 51.2025 123.648 50.4739 123.161 49.5904H123.086V57.438H119.833V36.3526H122.981V38.9879H123.041C123.55 38.1085 124.288 37.3837 125.177 36.8905C126.065 36.3973 127.071 36.1541 128.086 36.1868C132.107 36.1868 134.759 39.3655 134.759 44.2755ZM131.415 44.2755C131.415 41.0677 129.758 38.9588 127.228 38.9588C124.743 38.9588 123.072 41.1121 123.072 44.2755C123.072 47.4679 124.743 49.6058 127.228 49.6058C129.758 49.6058 131.415 47.5123 131.415 44.2755V44.2755Z" fill="black"/>
<path d="M146.283 46.1421C146.524 48.2972 148.617 49.7121 151.478 49.7121C154.219 49.7121 156.191 48.2971 156.191 46.354C156.191 44.6672 155.002 43.6572 152.186 42.9651L149.369 42.2866C145.379 41.3227 143.526 39.4565 143.526 36.4282C143.526 32.6787 146.794 30.1032 151.432 30.1032C156.026 30.1032 159.174 32.6787 159.28 36.4282H155.997C155.8 34.2595 154.007 32.9504 151.388 32.9504C148.768 32.9504 146.975 34.2749 146.975 36.2026C146.975 37.739 148.12 38.643 150.921 39.3351L153.315 39.923C157.774 40.9774 159.625 42.7685 159.625 45.9472C159.625 50.0128 156.388 52.5592 151.237 52.5592C146.418 52.5592 143.164 50.0726 142.954 46.142L146.283 46.1421Z" fill="black"/>
<path d="M166.647 32.6049V36.3544H169.66V38.9298H166.647V47.6644C166.647 49.0214 167.25 49.6537 168.575 49.6537C168.932 49.6475 169.289 49.6223 169.645 49.5784V52.1385C169.049 52.2498 168.444 52.3001 167.838 52.2889C164.63 52.2889 163.379 51.084 163.379 48.0113V38.9298H161.076V36.3544H163.379V32.6049H166.647Z" fill="black"/>
<path d="M171.403 44.2772C171.403 39.2921 174.339 36.1595 178.918 36.1595C183.511 36.1595 186.434 39.292 186.434 44.2772C186.434 49.276 183.527 52.3949 178.918 52.3949C174.31 52.3949 171.403 49.276 171.403 44.2772ZM183.12 44.2772C183.12 40.8575 181.553 38.8392 178.918 38.8392C176.282 38.8392 174.715 40.8729 174.715 44.2772C174.715 47.7106 176.282 49.7135 178.918 49.7135C181.553 49.7135 183.12 47.7106 183.12 44.2772H183.12Z" fill="black"/>
<path d="M189.115 36.3525H192.217V39.0492H192.292C192.502 38.207 192.996 37.4627 193.69 36.9414C194.384 36.4201 195.236 36.1536 196.103 36.1867C196.478 36.1854 196.852 36.2261 197.218 36.308V39.35C196.744 39.2055 196.251 39.1391 195.756 39.1535C195.284 39.1343 194.813 39.2176 194.376 39.3977C193.938 39.5777 193.545 39.8503 193.223 40.1966C192.901 40.5429 192.658 40.9548 192.51 41.4039C192.363 41.8531 192.314 42.3289 192.367 42.7988V52.1965H189.115L189.115 36.3525Z" fill="black"/>
<path d="M212.212 47.5448C211.775 50.421 208.974 52.3949 205.39 52.3949C200.781 52.3949 197.92 49.3067 197.92 44.3524C197.92 39.3827 200.796 36.1595 205.253 36.1595C209.637 36.1595 212.393 39.1708 212.393 43.9747V45.089H201.203V45.2855C201.151 45.8686 201.224 46.456 201.417 47.0088C201.61 47.5615 201.918 48.0668 202.321 48.4913C202.724 48.9158 203.213 49.2496 203.755 49.4706C204.297 49.6917 204.88 49.7948 205.465 49.7733C206.234 49.8453 207.005 49.6673 207.664 49.2658C208.323 48.8643 208.835 48.2607 209.124 47.5448L212.212 47.5448ZM201.218 42.816H209.139C209.169 42.2917 209.089 41.7671 208.906 41.275C208.723 40.7828 208.44 40.3339 208.075 39.9563C207.71 39.5787 207.271 39.2806 206.785 39.0808C206.3 38.8809 205.778 38.7835 205.253 38.7948C204.724 38.7916 204.199 38.8934 203.708 39.0942C203.218 39.295 202.773 39.5909 202.398 39.9647C202.023 40.3386 201.725 40.783 201.523 41.2724C201.32 41.7618 201.217 42.2864 201.218 42.8161V42.816Z" fill="black"/>
<path d="M86.9871 14.1086C87.6689 14.0597 88.3531 14.1627 88.9903 14.4102C89.6275 14.6577 90.2018 15.0435 90.6718 15.5399C91.1418 16.0362 91.4958 16.6307 91.7083 17.2804C91.9207 17.9301 91.9864 18.6189 91.9004 19.2971C91.9004 22.633 90.0974 24.5506 86.9871 24.5506H83.2153V14.1086H86.9871ZM84.8371 23.0738H86.8059C87.2931 23.103 87.7807 23.0231 88.2331 22.84C88.6856 22.6569 89.0915 22.3753 89.4214 22.0155C89.7512 21.6558 89.9967 21.227 90.14 20.7604C90.2832 20.2939 90.3206 19.8012 90.2495 19.3183C90.3155 18.8374 90.2743 18.3478 90.1288 17.8846C89.9834 17.4215 89.7373 16.9962 89.4081 16.6393C89.079 16.2824 88.6751 16.0028 88.2252 15.8204C87.7753 15.638 87.2906 15.5573 86.8059 15.5842H84.8371V23.0738Z" fill="black"/>
<path d="M93.7324 20.6084C93.6829 20.0905 93.7421 19.568 93.9063 19.0744C94.0706 18.5808 94.3361 18.1269 94.686 17.742C95.0359 17.357 95.4624 17.0494 95.9382 16.8389C96.4139 16.6284 96.9284 16.5197 97.4486 16.5197C97.9688 16.5197 98.4833 16.6284 98.959 16.8389C99.4348 17.0494 99.8613 17.357 100.211 17.742C100.561 18.1269 100.827 18.5808 100.991 19.0744C101.155 19.568 101.214 20.0905 101.165 20.6084C101.215 21.1268 101.157 21.65 100.993 22.1444C100.829 22.6388 100.564 23.0935 100.214 23.4792C99.8638 23.865 99.437 24.1732 98.9607 24.3841C98.4845 24.5951 97.9694 24.704 97.4486 24.704C96.9278 24.704 96.4127 24.5951 95.9365 24.3841C95.4603 24.1732 95.0334 23.865 94.6835 23.4792C94.3335 23.0935 94.068 22.6388 93.9043 22.1444C93.7405 21.65 93.6819 21.1268 93.7324 20.6084V20.6084ZM99.5652 20.6084C99.5652 18.9003 98.7978 17.9014 97.4512 17.9014C96.0994 17.9014 95.3389 18.9003 95.3389 20.6084C95.3389 22.3302 96.0994 23.3214 97.4512 23.3214C98.7979 23.3214 99.5652 22.3233 99.5652 20.6084H99.5652Z" fill="black"/>
<path d="M111.044 24.5506H109.431L107.803 18.7468H107.679L106.058 24.5506H104.46L102.288 16.6704H103.865L105.277 22.6834H105.393L107.013 16.6704H108.505L110.125 22.6834H110.248L111.653 16.6704H113.208L111.044 24.5506Z" fill="black"/>
<path d="M115.035 16.6698H116.532V17.9216H116.648C116.845 17.472 117.178 17.0951 117.599 16.8435C118.021 16.5918 118.51 16.4779 119 16.5177C119.383 16.4889 119.768 16.5467 120.126 16.6869C120.484 16.827 120.806 17.046 121.068 17.3274C121.33 17.6089 121.525 17.9457 121.639 18.3129C121.753 18.6801 121.783 19.0682 121.727 19.4486V24.5498H120.172V19.8391C120.172 18.5728 119.622 17.943 118.471 17.943C118.211 17.9309 117.951 17.9752 117.71 18.0729C117.468 18.1706 117.25 18.3194 117.072 18.5091C116.893 18.6987 116.757 18.9248 116.674 19.1718C116.591 19.4188 116.562 19.6808 116.59 19.9399V24.5499H115.035L115.035 16.6698Z" fill="black"/>
<path d="M124.205 13.5943H125.76V24.5505H124.205V13.5943Z" fill="black"/>
<path d="M127.922 20.6058C127.873 20.0879 127.932 19.5653 128.096 19.0717C128.261 18.5781 128.526 18.1242 128.876 17.7392C129.226 17.3542 129.653 17.0467 130.128 16.8362C130.604 16.6257 131.119 16.517 131.639 16.517C132.159 16.517 132.674 16.6257 133.149 16.8362C133.625 17.0467 134.052 17.3542 134.402 17.7392C134.752 18.1242 135.017 18.5781 135.181 19.0717C135.346 19.5653 135.405 20.0879 135.356 20.6058C135.406 21.1242 135.347 21.6474 135.184 22.1418C135.02 22.6362 134.754 23.0909 134.404 23.4766C134.054 23.8623 133.627 24.1705 133.151 24.3815C132.675 24.5924 132.16 24.7014 131.639 24.7014C131.118 24.7014 130.603 24.5924 130.127 24.3815C129.651 24.1705 129.224 23.8623 128.874 23.4766C128.524 23.0909 128.258 22.6362 128.094 22.1418C127.93 21.6474 127.872 21.1242 127.922 20.6058V20.6058ZM133.755 20.6058C133.755 18.8976 132.988 17.8987 131.641 17.8987C130.289 17.8987 129.529 18.8976 129.529 20.6058C129.529 22.3276 130.289 23.3188 131.641 23.3188C132.988 23.3188 133.755 22.3207 133.755 20.6058H133.755Z" fill="black"/>
<path d="M136.993 22.3234C136.993 20.9049 138.049 20.0872 139.924 19.971L142.058 19.8479V19.1678C142.058 18.3355 141.508 17.8655 140.445 17.8655C139.577 17.8655 138.975 18.1842 138.802 18.7414H137.297C137.456 17.3879 138.729 16.5197 140.517 16.5197C142.492 16.5197 143.606 17.5032 143.606 19.1678V24.5519H142.109V23.4445H141.986C141.737 23.8417 141.386 24.1656 140.97 24.3829C140.554 24.6003 140.088 24.7034 139.619 24.6818C139.289 24.7162 138.954 24.6809 138.638 24.5781C138.322 24.4754 138.03 24.3076 137.783 24.0854C137.535 23.8632 137.337 23.5916 137.201 23.2881C137.065 22.9846 136.994 22.656 136.993 22.3234V22.3234ZM142.058 21.6501V20.9912L140.134 21.1143C139.049 21.1869 138.556 21.5561 138.556 22.2508C138.556 22.96 139.172 23.3727 140.018 23.3727C140.266 23.3978 140.516 23.3728 140.754 23.2991C140.992 23.2254 141.213 23.1047 141.403 22.9439C141.593 22.7832 141.75 22.5858 141.862 22.3636C141.975 22.1413 142.041 21.8986 142.058 21.6501V21.6501Z" fill="black"/>
<path d="M145.65 20.6071C145.65 18.1171 146.93 16.5397 148.921 16.5397C149.414 16.517 149.903 16.635 150.331 16.8798C150.758 17.1246 151.108 17.4862 151.338 17.9222H151.454V13.5943H153.009V24.5505H151.519V23.3055H151.396C151.148 23.7387 150.787 24.0957 150.35 24.3381C149.914 24.5804 149.42 24.6988 148.921 24.6804C146.917 24.6805 145.65 23.1031 145.65 20.6071ZM147.257 20.6071C147.257 22.2785 148.045 23.2842 149.362 23.2842C150.673 23.2842 151.483 22.264 151.483 20.6139C151.483 18.9716 150.665 17.9368 149.362 17.9368C148.053 17.9368 147.257 18.9494 147.257 20.6071H147.257Z" fill="black"/>
<path d="M159.444 20.6084C159.394 20.0905 159.454 19.568 159.618 19.0744C159.782 18.5808 160.048 18.1269 160.397 17.742C160.747 17.357 161.174 17.0494 161.65 16.8389C162.125 16.6284 162.64 16.5197 163.16 16.5197C163.68 16.5197 164.195 16.6284 164.67 16.8389C165.146 17.0494 165.573 17.357 165.923 17.742C166.273 18.1269 166.538 18.5808 166.702 19.0744C166.867 19.568 166.926 20.0905 166.876 20.6084C166.927 21.1268 166.868 21.65 166.704 22.1444C166.541 22.6388 166.275 23.0935 165.925 23.4792C165.575 23.865 165.148 24.1732 164.672 24.3841C164.196 24.5951 163.681 24.704 163.16 24.704C162.639 24.704 162.124 24.5951 161.648 24.3841C161.172 24.1732 160.745 23.865 160.395 23.4792C160.045 23.0935 159.779 22.6388 159.616 22.1444C159.452 21.65 159.393 21.1268 159.444 20.6084V20.6084ZM165.277 20.6084C165.277 18.9003 164.509 17.9014 163.163 17.9014C161.811 17.9014 161.05 18.9003 161.05 20.6084C161.05 22.3302 161.811 23.3214 163.163 23.3214C164.509 23.3214 165.277 22.3233 165.277 20.6084Z" fill="black"/>
<path d="M168.963 16.6698H170.46V17.9216H170.576C170.773 17.472 171.106 17.0951 171.527 16.8435C171.949 16.5918 172.438 16.4779 172.928 16.5177C173.311 16.4889 173.696 16.5467 174.054 16.6869C174.412 16.827 174.734 17.046 174.996 17.3274C175.258 17.6089 175.453 17.9457 175.567 18.3129C175.682 18.6801 175.712 19.0682 175.655 19.4486V24.5498H174.1V19.8391C174.1 18.5728 173.55 17.943 172.4 17.943C172.139 17.9309 171.879 17.9752 171.638 18.0729C171.396 18.1706 171.179 18.3194 171 18.5091C170.821 18.6987 170.686 18.9248 170.602 19.1718C170.519 19.4188 170.49 19.6808 170.518 19.9399V24.5499H168.963V16.6698Z" fill="black"/>
<path d="M184.443 14.7085V16.7063H186.15V18.0163H184.443V22.0683C184.443 22.8937 184.783 23.2551 185.557 23.2551C185.755 23.2545 185.953 23.2425 186.15 23.2193V24.5147C185.871 24.5646 185.588 24.5912 185.304 24.5941C183.574 24.5941 182.886 23.9857 182.886 22.4664V18.0162H181.635V16.7062H182.886V14.7085H184.443Z" fill="black"/>
<path d="M188.274 13.5943H189.816V17.9368H189.939C190.146 17.483 190.487 17.1039 190.917 16.8513C191.347 16.5987 191.845 16.4848 192.342 16.5252C192.723 16.5044 193.104 16.5681 193.458 16.7117C193.812 16.8552 194.13 17.0752 194.39 17.3558C194.649 17.6364 194.843 17.9707 194.958 18.3349C195.073 18.6992 195.106 19.0843 195.056 19.4629V24.5506H193.499V19.8466C193.499 18.5879 192.913 17.9504 191.814 17.9504C191.547 17.9285 191.278 17.9653 191.026 18.0581C190.774 18.151 190.546 18.2977 190.357 18.4879C190.168 18.6782 190.023 18.9075 189.932 19.1598C189.841 19.412 189.806 19.6811 189.83 19.9482V24.5505H188.274L188.274 13.5943Z" fill="black"/>
<path d="M204.123 22.4216C203.912 23.1418 203.454 23.7648 202.83 24.1815C202.206 24.5983 201.455 24.7823 200.709 24.7014C200.19 24.7151 199.674 24.6156 199.197 24.41C198.72 24.2043 198.294 23.8973 197.947 23.5103C197.601 23.1233 197.343 22.6656 197.191 22.1689C197.04 21.6722 196.998 21.1485 197.069 20.634C197 20.118 197.042 19.5931 197.194 19.0949C197.345 18.5967 197.602 18.1369 197.946 17.7465C198.291 17.3561 198.715 17.0443 199.19 16.8322C199.666 16.6201 200.181 16.5126 200.702 16.5171C202.895 16.5171 204.217 18.0151 204.217 20.4896V21.0322H198.653V21.1194C198.629 21.4086 198.665 21.6996 198.76 21.9739C198.854 22.2483 199.005 22.4998 199.203 22.7123C199.401 22.9248 199.64 23.0938 199.907 23.2082C200.174 23.3226 200.461 23.3801 200.752 23.3769C201.124 23.4215 201.501 23.3546 201.834 23.1844C202.168 23.0143 202.444 22.7488 202.626 22.4216L204.123 22.4216ZM198.653 19.8821H202.633C202.653 19.6176 202.617 19.3519 202.528 19.1022C202.438 18.8524 202.298 18.6241 202.115 18.4318C201.933 18.2396 201.712 18.0877 201.467 17.9859C201.222 17.8841 200.959 17.8346 200.693 17.8407C200.424 17.8373 200.158 17.8878 199.908 17.9892C199.659 18.0906 199.433 18.2409 199.243 18.4311C199.053 18.6214 198.902 18.8478 198.801 19.0969C198.7 19.3461 198.649 19.6131 198.653 19.8821H198.653Z" fill="black"/>
</svg>
